<svg width="50" height="50" viewBox="0 0 50 50" fill="none" xmlns="http://www.w3.org/2000/svg">
<circle cx="25" cy="25" r="25" fill="#FFEFF2"/>
<path d="M30 14.9988H20C17.2386 14.9988 15 17.2374 15 19.9988V29.9988C15 32.7602 17.2386 34.9988 20 34.9988H30C32.7614 34.9988 35 32.7602 35 29.9988V19.9988C35 17.2374 32.7614 14.9988 30 14.9988Z" stroke="#E51B94" stroke-width="2" stroke-linecap="round" stroke-linejoin="round"/>
<path d="M29 24.3698C29.1234 25.2021 28.9812 26.052 28.5937 26.7988C28.2062 27.5456 27.5931 28.1512 26.8416 28.5295C26.0901 28.9077 25.2384 29.0394 24.4077 28.9057C23.5771 28.7721 22.8097 28.3799 22.2148 27.785C21.6199 27.1901 21.2277 26.4227 21.094 25.592C20.9604 24.7614 21.092 23.9097 21.4703 23.1582C21.8485 22.4067 22.4541 21.7936 23.2009 21.4061C23.9477 21.0186 24.7977 20.8764 25.63 20.9998C26.4789 21.1257 27.2648 21.5213 27.8716 22.1281C28.4785 22.735 28.8741 23.5209 29 24.3698Z" stroke="#E51B94" stroke-width="2" stroke-linecap="round" stroke-linejoin="round"/>
<path d="M30.5 19.4985H30.51" stroke="#E51B94" stroke-width="2" stroke-linecap="round" stroke-linejoin="round"/>
</svg>
