<svg width="50" height="50" viewBox="0 0 50 50" fill="none" xmlns="http://www.w3.org/2000/svg">
<circle cx="25" cy="25" r="25" fill="#F9FFFD"/>
<path fill-rule="evenodd" clip-rule="evenodd" d="M31.403 18.633C30.5714 17.7959 29.5819 17.1321 28.4919 16.6802C27.4019 16.2282 26.233 15.997 25.053 16C20.105 16 16.077 20.027 16.075 24.977C16.075 26.559 16.488 28.103 17.273 29.465L16 34.116L20.759 32.867C22.0754 33.5836 23.5502 33.9594 25.049 33.96H25.053C30 33.96 34.028 29.933 34.03 24.983C34.0334 23.8035 33.803 22.635 33.3521 21.5451C32.9012 20.4552 32.2387 19.4654 31.403 18.633ZM25.053 32.445H25.05C23.7135 32.4452 22.4016 32.0856 21.252 31.404L20.98 31.242L18.156 31.983L18.909 29.23L18.732 28.948C17.9848 27.7585 17.5892 26.3818 17.591 24.977C17.593 20.863 20.94 17.516 25.056 17.516C26.0363 17.5139 27.0072 17.7061 27.9127 18.0817C28.8181 18.4572 29.6401 19.0087 30.331 19.704C31.0256 20.3961 31.5762 21.2189 31.9509 22.125C32.3256 23.0311 32.517 24.0025 32.514 24.983C32.512 29.097 29.165 32.445 25.053 32.445ZM29.146 26.856C28.921 26.743 27.819 26.201 27.613 26.126C27.408 26.051 27.259 26.014 27.109 26.238C26.959 26.462 26.529 26.967 26.398 27.117C26.267 27.267 26.136 27.285 25.912 27.173C25.688 27.061 24.965 26.824 24.108 26.06C23.441 25.465 22.991 24.731 22.86 24.506C22.729 24.281 22.846 24.16 22.959 24.048C23.06 23.948 23.183 23.786 23.295 23.655C23.407 23.524 23.444 23.431 23.519 23.281C23.594 23.131 23.557 23 23.5 22.888C23.444 22.775 22.995 21.671 22.808 21.222C22.627 20.787 22.442 20.845 22.304 20.839C22.1611 20.8332 22.018 20.8305 21.875 20.831C21.7613 20.8339 21.6493 20.8603 21.5463 20.9085C21.4432 20.9567 21.3512 21.0256 21.276 21.111C21.07 21.336 20.491 21.878 20.491 22.982C20.491 24.086 21.295 25.153 21.407 25.303C21.519 25.453 22.989 27.718 25.239 28.69C25.775 28.921 26.193 29.059 26.518 29.163C27.055 29.334 27.544 29.309 27.931 29.252C28.362 29.188 29.258 28.71 29.445 28.186C29.632 27.662 29.632 27.213 29.576 27.119C29.52 27.025 29.369 26.968 29.146 26.856Z" fill="#009971"/>
</svg>
